<svg version="1.0" xmlns="http://www.w3.org/2000/svg" width="150px" height="132px" viewBox="0 0 500.000000 500.000000" preserveAspectRatio="xMidYMid meet">
    <g transform="translate(0.000000,500.000000) scale(0.100000,-0.100000)" fill="#000000" stroke="none">
        <path d="M0 2500 l0 -2500 2500 0 2500 0 0 2500 0 2500 -2500 0 -2500 0 0 -2500z m4250 136 l0 -1174 -27 -3 c-16 -2 -313 -3 -660 -1 l-633 3 0 70 0 69 585 0 585 0 0 1030 0 1030 -575 0 -575 0 0 75 0 75 650 0 650 0 0 -1174z m-2977 532 c88 -222 447 -1152 447 -1159 0 -5 -51 -9 -114 -9 l-113 0 -108 308 c-60 169 -114 318 -120 330 -10 21 -24 -12 -126 -305 l-114 -328 -115 0 c-97 0 -115 2 -112 15 10 50 448 1160 458 1160 7 0 14 -6 17 -12z m1252 -17 c78 -31 155 -107 179 -176 34 -101 30 -230 -11 -309 -24 -47 -90 -112 -133 -131 -22 -10 -40 -23 -40 -30 0 -7 50 -119 110 -250 61 -131 110 -242 110 -246 0 -5 -53 -9 -118 -9 l-118 0 -110 238 -109 237 -62 3 -63 3 -2 -238 -3 -238 -110 0 -110 0 -3 342 -2 341 232 4 c203 3 238 6 271 22 46 23 67 60 67 120 0 36 -6 52 -30 79 -43 50 -86 57 -329 57 l-211 0 0 98 c0 54 3 102 7 106 4 4 125 6 268 4 246 -3 263 -5 320 -27z m1125 -71 l0 -100 -352 2 -353 3 -3 84 c-2 46 -1 90 2 98 4 10 73 13 356 13 l350 0 0 -100z m-242 -702 l-3 -373 -107 -3 -108 -3 0 376 0 375 110 0 110 0 -2 -372z m-2208 -508 l0 -30 -255 0 -255 0 0 -290 0 -290 250 0 250 0 0 -30 0 -30 -280 0 -280 0 0 350 0 350 285 0 285 0 0 -30z m-121 -136 c22 -5 31 -12 31 -26 0 -18 -5 -19 -62 -13 -35 3 -76 2 -93 -3 -29 -8 -30 -11 -30 -62 0 -63 7 -67 108 -69 77 -1 97 -21 97 -96 0 -30 -5 -65 -11 -79 -19 -41 -88 -60 -184 -50 -59 6 -65 9 -65 29 0 22 2 22 89 17 87 -5 89 -4 106 22 20 29 15 93 -7 108 -7 4 -39 8 -71 8 -61 0 -110 19 -121 45 -13 34 -6 113 12 135 27 33 123 49 201 34z m491 -24 c0 -18 -7 -20 -65 -20 l-65 0 0 -175 0 -175 -30 0 -30 0 0 175 0 175 -65 0 c-58 0 -65 2 -65 20 0 19 7 20 160 20 153 0 160 -1 160 -20z m388 -167 c40 -104 72 -191 72 -195 0 -5 -12 -8 -28 -8 -24 0 -29 6 -48 58 l-20 57 -86 3 -86 3 -19 -58 c-18 -52 -23 -58 -50 -61 l-31 -3 77 195 76 196 36 0 35 0 72 -187z m262 95 l1 -93 87 93 c76 81 91 92 120 92 l33 0 -78 -85 c-43 -47 -79 -89 -81 -93 -1 -5 38 -53 88 -108 l91 -99 -33 -3 c-30 -3 -41 4 -130 100 l-97 103 -1 -102 0 -103 -30 0 -30 0 0 195 0 195 30 0 30 0 0 -92z m640 72 c0 -19 -7 -20 -100 -20 l-100 0 0 -65 0 -65 90 0 c83 0 90 -1 90 -20 0 -19 -7 -20 -90 -20 l-90 0 0 -70 0 -70 105 0 c98 0 105 -1 105 -20 0 -19 -7 -20 -135 -20 l-135 0 0 195 0 195 130 0 c123 0 130 -1 130 -20z"/>
        <path d="M1817 1603 c-14 -37 -28 -76 -32 -85 -6 -16 0 -18 59 -18 36 0 66 4 66 9 0 14 -51 145 -59 154 -5 5 -20 -22 -34 -60z"/>
    </g>
</svg>
